<svg width="32" height="32" viewBox="0 0 32 32" fill="none" xmlns="http://www.w3.org/2000/svg">
  <defs>
    <linearGradient id="bg" x1="0%" y1="0%" x2="100%" y2="100%">
      <stop offset="0%" style="stop-color:#16a34a;stop-opacity:1" />
      <stop offset="100%" style="stop-color:#0ea5e9;stop-opacity:1" />
    </linearGradient>
    <linearGradient id="leaf" x1="0%" y1="0%" x2="100%" y2="100%">
      <stop offset="0%" style="stop-color:#22c55e;stop-opacity:1" />
      <stop offset="100%" style="stop-color:#16a34a;stop-opacity:1" />
    </linearGradient>
  </defs>
  
  <!-- Background circle with gradient -->
  <circle cx="16" cy="16" r="16" fill="url(#bg)"/>
  
  <!-- Tree/plant icon -->
  <path d="M16 6C16 6 18 8 20 10C22 12 24 14 24 16C24 18 22 20 20 22C18 24 16 26 16 26C16 26 14 24 12 22C10 20 8 18 8 16C8 14 10 12 12 10C14 8 16 6 16 6Z" fill="white" opacity="0.9"/>
  
  <!-- Leaf details -->
  <path d="M16 8C16 8 17.5 9.5 19 11C20.5 12.5 22 14 22 16C22 18 20.5 19.5 19 21C17.5 22.5 16 24 16 24C16 24 14.5 22.5 13 21C11.5 19.5 10 18 10 16C10 14 11.5 12.5 13 11C14.5 9.5 16 8 16 8Z" fill="url(#leaf)" opacity="0.8"/>
  
  <!-- Center dot -->
  <circle cx="16" cy="16" r="2" fill="white" opacity="0.9"/>
  
  <!-- Small decorative elements -->
  <circle cx="12" cy="12" r="1" fill="white" opacity="0.6"/>
  <circle cx="20" cy="12" r="1" fill="white" opacity="0.6"/>
  <circle cx="12" cy="20" r="1" fill="white" opacity="0.6"/>
  <circle cx="20" cy="20" r="1" fill="white" opacity="0.6"/>
</svg>